<?xml version="1.0" encoding="utf-8"?>
<!-- Generator: Adobe Illustrator 23.0.0, SVG Export Plug-In . SVG Version: 6.00 Build 0)  -->
<svg version="1.1" id="Layer_1" xmlns="http://www.w3.org/2000/svg" xmlns:xlink="http://www.w3.org/1999/xlink" x="0px" y="0px"
	 viewBox="0 0 527 60" style="enable-background:new 0 0 527 60;" xml:space="preserve">
<style type="text/css">
	.st0{fill:#FFFFFF;}
</style>
<path class="st0" d="M505.9,8C490.7,8,485,20.3,485,29.7c0,4.6,1.3,9.6,4.1,13.7c-0.2,1-0.8,2.1-1.3,2.7c-1.3,1.4-4.6,1.5-7.4,1.5
	l-0.6,0c-4,0-4.3-0.4-5.2-1.2c-1.1-1-1.1-4.6-1.2-11.3l0-12.1c0-6.6,0-8,0.1-9.6c0.1-1.9,0.5-2.8,2-3.1c0.7-0.1,1.5-0.2,2.1-0.2
	c0.7,0,1-0.1,1-0.5c0-0.4-0.4-0.5-1.2-0.5c-2.1,0-7.3,0.2-8.7,0.2c-1.5,0-5.1-0.2-7.6-0.2c-0.8,0-1.2,0.1-1.2,0.5
	c0,0.4,0.3,0.5,0.9,0.5c0.7,0,1.4,0.1,1.8,0.2c1.8,0.4,2.2,1.3,2.4,3.1c0.1,1.4,0.1,2.7,0.1,7.6l0,15.6c0,4.2,0,7.7-0.3,9.7
	c-0.2,1.6-0.5,2.8-1.6,3c-0.5,0.1-1.2,0.2-2,0.2c-0.7,0-0.9,0.2-0.9,0.4c0,0.4,0.4,0.5,1.1,0.5c2.1,0,5.5-0.2,6.9-0.2l0.6,0
	c4.3,0,9.3,0.3,16.9,0.3c2.8,0,3.1-0.3,3.5-1.5c0.3-1,0.5-3,0.7-4.5c3.3,4,8.3,6.7,15.2,6.7c12.8,0,20.9-10,20.9-22.7
	C526.3,16,518.5,8,505.9,8z M507.4,48.5c-9.2,0-14.7-9.1-14.7-20.5c0-13.7,6.3-17.2,11.8-17.2c7.9,0,14.1,7.6,14.1,19.9
	C518.5,46.6,510.7,48.5,507.4,48.5z M298.9,39.6c-0.2-5.3-3.1-9-10.9-14.2l-1.8-1.2l-0.3-0.2c-5.1-3.4-6.6-5.3-6.7-7.8
	c-0.1-3.3,2.7-5.7,7.4-5.7c4.1,0,6,1.7,7,2.7c1.4,1.4,1.7,3.2,1.8,3.7c0,0.7,0.2,1,0.7,1c0.5,0,0.7-0.4,0.6-1.7
	c-0.1-4.3,0.1-5.9,0.1-6.7c0-0.4-0.3-0.6-0.9-0.7c-1.7-0.4-4.4-0.9-8.5-0.9c-8.8,0-14.6,4.4-14.4,10.5c0.1,4.5,2.7,8.4,9.8,13.2l3,2
	l0.3,0.2c5.1,3.4,6.1,6,6.2,8.7c0.1,2.9-2.6,6.3-8.3,6.3c-3.9,0-7.7-1.5-9.3-5.6c-0.4-0.9-0.6-2.1-0.7-2.8c0-0.4-0.1-0.9-0.7-0.9
	c-0.5,0-0.7,0.6-0.7,1.4c0,0.9-0.2,4.2-0.1,7.3c0,1.2,0.2,1.5,1.3,1.9c2.8,1.1,5.6,1.4,9.3,1.4c3.4,0,6.9-0.5,10.1-2.3
	C297.8,46.7,299,42.9,298.9,39.6z M422,49.3c-0.7,0-1.5-0.1-2.2-0.2c-1.1-0.3-2.1-1.5-2.5-6.4C416.4,34.4,415,12,414.7,9
	c-0.1-1-1.1-1.2-1.7-0.8c-0.4,0.3-0.9,1-1.5,1.8l-0.3,0.4c-9.8,13.4-15.3,20.7-25.3,34.2c-1.7,2.4-3.2,4.9-6.5,4.8
	c-1.4-0.1-2-1.4-2.1-3c-0.2-2.1-0.3-5.8-0.3-10.2l0-23.4l0-0.2c0-0.5,0.2-0.8,0.4-0.9c0.5-0.2,1.3-0.2,2.1-0.2c1.3,0,4.5,0.2,6.4,2
	c2.9,2.6,3,6.1,3,8l0,0.3c0,5.6-4.4,9.1-7.5,9.1c-1.2,0-2.1,0.2-2.1,0.6c0,0.4,0.4,0.4,0.7,0.5c0.3,0,2.6,0.1,2.9,0.1
	c7.8,0,13.3-4.7,13.5-13.2c0-2.9-1.5-5.3-2.7-6.5c-1.6-1.5-5.1-3.2-11.9-3.2c-2.5,0-5.7,0.2-7.9,0.2c-1.3,0-8.9-0.3-9.3-0.3
	c-1.9,0-3.7,0.2-4.8,0.2c-1,0-3.4-0.2-5.9-0.2c-0.7,0-1.3,0.1-1.3,0.5c0,0.3,0.2,0.5,0.8,0.5c0.7,0,1.9,0,2.6,0.3
	c1.2,0.6,1.6,1.6,1.7,4.9l0.1,21.3l0,0c-1.3-1.4-25-27.7-25.7-28.2c-0.9-0.7-1.9-0.1-1.9,0.8l-0.9,27.5l-0.5-0.6
	c-8.6-10.7-21.7-27-22-27.5c-0.6-0.8-1.9-0.6-2,0.6c-0.1,1.6-2.5,35.5-2.5,35.5c-0.1,2.7-0.5,4.5-2.9,4.9c-0.4,0.1-1.2,0.1-1.7,0.1
	c-0.4,0-0.6,0.1-0.5,0.4c0.2,0.4,0.5,0.5,1.3,0.5c2.9,0,5.9-0.2,6.5-0.2c1.7,0,4.2,0.2,5.9,0.2c0.6,0,0.9-0.1,0.7-0.5
	c-0.1-0.3-0.3-0.4-1-0.4h-0.8l-0.2,0c-1.6-0.1-2.3-0.7-2.6-1.7c-0.2-0.6-0.5-1.9-0.4-3.3l0.1-7.7l0-0.1c0-0.3,0.1-0.3,0.3-0.3h11.8
	l0.1,0c0.2,0,0.4,0.1,0.6,0.4l8.7,10.7l0.1,0.1c0.2,0.3,0.3,0.8-0.1,1.1c-0.1,0.1-0.4,0.3-0.6,0.3c-0.7,0.2-1.7,0.2-2.4,0.2
	c-0.5,0-0.5,0.3-0.5,0.6c0,0.5,0.5,0.6,1.1,0.6c2.5,0,4.9-0.1,5.3-0.1l5.3,0l0.4,0c1.5,0,3,0.1,3.9,0.1c2.2,0,2.5-0.1,2.3-0.5
	c-0.1-0.4,0-0.6-0.4-0.6c-0.7,0-0.7,0-1.6-0.1c-1.3-0.3-2.8-1.8-6.7-6.7l-0.8-1l-0.3-19.8l0,0c1.3,1.5,22.8,24.8,25.8,28.1
	c0.5,0.6,1.1,1.2,1.7,1.2c0.4,0,0.6-0.5,0.6-1.7l0.5-34.5l0-0.3c0.1-2.8,0.4-4,1.8-4.4c0.5-0.1,2-0.2,3,0.1c1.8,0.4,2.2,1.3,2.4,3.1
	c0.1,1.6,0.1,3,0.1,9.2l0,2.4l0,9.6l0,1.5c0,4.4,0,8.1-0.3,10.2c-0.2,1.6-0.5,2.8-1.6,3c-0.5,0.1-1.1,0.2-2,0.2
	c-0.7,0-0.9,0.2-0.9,0.4c0,0.4,0.4,0.5,1.1,0.5c2.2,0,7.2-0.2,7.5-0.2c5,0.3,9.4,0.2,11.8,0.1c2-0.1,5,0.3,5.7,0.3
	c0.6,0,1.1-0.1,1.1-0.6c0-0.3-0.2-0.4-0.7-0.4h-0.8l-0.2,0c-1.5,0-1.3-0.8-0.7-1.6l7.8-11.2l0.1-0.1c0.2-0.2,0.3-0.3,0.6-0.3l11-0.1
	l0.1,0c0.2,0,0.3,0.1,0.3,0.4l0.4,11.4l0,0.1c0,0.6-0.5,1-0.9,1.1c-0.6,0.1-0.9,0.1-0.9,0.6c0,0.5,0.5,0.5,1.5,0.5
	c2,0,3.5-0.1,5.8-0.1c2,0,4,0.2,5.1,0.2c2,0,2.7-0.3,2.9-0.7C422.7,49.5,422.4,49.3,422,49.3z M316.5,33.7H307l-0.1,0
	c-0.2,0-0.3-0.2-0.3-0.4l0.4-11l0-0.1c0-0.2,0-0.4,0.1-0.4c0.2,0,0.2,0.2,0.4,0.4c0.4,0.5,9.1,11.2,9.1,11.2
	C316.7,33.6,316.7,33.7,316.5,33.7z M408.2,33.7l-8.9,0l0,0c-0.1,0-0.2-0.1-0.1-0.4c0.9-1.2,6.2-8.9,8.4-12.1
	c0.1-0.2,0.4-0.1,0.4,0.1c0.1,1.6,0.6,12.2,0.6,12.2C408.6,33.5,408.5,33.7,408.2,33.7z M441.2,8c-15.2,0-20.9,12.3-20.9,21.7
	c0,9.8,5.9,21.7,20.4,21.7c12.8,0,20.9-10,20.9-22.7C461.7,16,453.8,8,441.2,8z M442.7,48.5c-9.2,0-14.7-9.1-14.7-20.5
	c0-13.7,6.3-17.2,11.8-17.2c7.9,0,14.1,7.6,14.1,19.9C453.9,46.6,446.1,48.5,442.7,48.5z M175,49.8c-0.7,0-1.5,0-2.2-0.2
	c-1.1-0.3-2.1-1.5-2.5-6.4c-0.8-8.3-2.2-30.6-2.5-33.7c-0.1-1-1.1-1.2-1.7-0.8c-0.5,0.3-1.1,1.3-1.8,2.2c-7.6,10.3-12.5,17-19,25.7
	c-1-4-4.1-7.3-10.5-11.5l-1.8-1.2c-5.4-3.5-6.9-5.4-7-8c-0.1-3.3,2.7-5.7,7.4-5.7c4.1,0,6,1.7,7,2.7c1.4,1.4,1.7,3.2,1.8,3.7
	c0,0.7,0.2,1,0.7,1c0.5,0,0.7-0.4,0.7-1.7c-0.1-4.3,0.1-5.9,0.1-6.7c0-0.4-0.3-0.6-0.9-0.7c-1.7-0.4-4.4-0.9-8.5-0.9
	c-8.8,0-14.6,4.4-14.4,10.5c0.1,4.5,2.7,8.4,9.8,13.2l3,2c5.4,3.6,6.4,6.2,6.5,8.9c0.1,2.9-2.6,6.3-8.3,6.3c-3.9,0-7.7-1.5-9.3-5.6
	c-0.3-0.9-0.6-2.1-0.7-2.8c0-0.4-0.1-0.9-0.7-0.9c-0.5,0-0.6,0.6-0.7,1.4c-0.1,0.5-0.3,1.8-0.3,2.2c-0.4,2.3-1.1,3.4-2.5,4.1
	c-1.4,0.7-3.8,0.7-5.2,0.7c-5.6,0-9.7-0.8-9.8-4.6c-0.1-1.6,0-6.7,0-8.6V30c0-0.3,0.1-0.6,0.3-0.6c1.3,0,9.2,0.1,10.2,0.2
	c2,0.2,2.8,1.1,3.1,2.2c0.2,0.7,0.2,1.4,0.2,2c0,0.3,0.1,0.5,0.5,0.5c0.5,0,0.5-0.6,0.5-1.1c0-0.4,0.1-2.6,0.2-3.7
	c0.2-2.8,0.4-3.7,0.4-4c0-0.3-0.2-0.4-0.4-0.4c-0.3,0-0.5,0.3-0.9,0.7c-0.5,0.6-1.3,0.7-2.7,0.8c-1.3,0.1-10,0.1-11.2,0.1
	c-0.3,0-0.4-0.2-0.4-0.6v-14c0-0.4,0.1-0.6,0.4-0.6c1.1,0,9.3,0.1,10.2,0.2c2.8,0.3,3.3,1,3.7,2c0.3,0.7,0.3,1.6,0.3,2
	c0,0.5,0.1,0.8,0.5,0.8c0.4,0,0.5-0.3,0.6-0.6c0.1-0.7,0.2-3.1,0.3-3.6c0.2-2.5,0.4-3.2,0.4-3.6c0-0.3-0.1-0.5-0.3-0.5
	c-0.3,0-0.6,0.2-0.9,0.2c-0.4,0.1-1.3,0.2-2.4,0.3c-1.1,0.1-14.4,0.1-16.2,0.1c-0.8,0-2-0.1-3.5-0.1c-1.1,0-2.4,0-3.7,0
	c-0.1-0.3-0.2-0.4-0.4-0.4c-0.4,0-1.7,0.5-5.3,0.5H66.7c-1.8,0-3.9-0.1-5.5-0.3c-1.4-0.1-1.9-0.5-2.3-0.5c-0.3,0-0.5,0.1-0.6,0.7
	h-0.5c-0.7,0-1.5,0-2.1,0.1c-1.2,0-2.2,0.1-2.8,0.1c-1.1,0-3.3-0.2-5.7-0.2c-0.7,0-1.3,0.1-1.3,0.5c0,0.3,0.2,0.5,0.8,0.5
	c0.7,0,1.9,0,2.6,0.3c1,0.5,1.5,1.4,1.6,3.9l0.2,22.2C50.1,35.4,26,8.6,25.3,8c-0.9-0.7-1.9-0.1-1.9,0.8L23,23.2l-0.7,19
	c-0.1,4.7-1,5.7-2.3,6.4c-0.6,0.4-1.6,0.5-2.3,0.6c-0.2,0-2.5,0.1-3.4-0.1c-1.5-0.4-2.3-1.3-2.5-2.8c-0.2-2.4-0.2-6.7-0.2-12v-9.6
	c0-8.3,0-9.9,0.1-11.6c0.1-1.9,0.5-2.8,2-3.1c0.7-0.1,1.1-0.2,1.6-0.2c0.5,0,0.9-0.1,0.9-0.5c0-0.3-0.4-0.4-1.1-0.4
	C13,8.8,9.8,9,8.4,9c-1.6,0-5-0.2-7.1-0.2C0.4,8.8,0,8.9,0,9.2c0,0.4,0.3,0.5,0.9,0.5c0.6,0,1.4,0.1,2,0.2c1.2,0.3,1.7,1.2,1.8,3.1
	c0.1,1.8,0.1,3.3,0.1,11.6v9.6c0,5.3,0,9.6-0.3,11.9C4.4,47.8,4,48.8,2.9,49c-0.5,0.1-1.1,0.2-2,0.2c-0.7,0-0.9,0.2-0.9,0.4
	c0,0.4,0.4,0.6,1.1,0.6c2.2,0,5.6-0.2,6.9-0.2c1.5,0,9.7,0.2,9.9,0.2c2.8,0,5.7-0.1,6.2-0.1c1,0,3.2,0.2,6.7,0.2
	c0.8,0,1.3-0.1,1.3-0.5c0-0.3-0.3-0.4-0.9-0.4c-0.9,0-1.9-0.1-2.8-0.4c-1.1-0.4-1.8-1.8-1.9-6.1l-0.2-10.7l-0.2-10.7
	c0.9,1,22.7,24.8,25.7,28.1c0.5,0.6,1.1,1.2,1.7,1.2c0.4,0,0.6-0.5,0.6-1.7l0.5-34.5c0-0.4,0-0.8,0-1.2c0.2-2.1,0.6-2.8,1.6-3.3
	c0.5-0.2,1.2-0.3,1.9-0.3c0,1.6,0,4.8,0,5.5c0,0.6,0.1,0.9,0.5,0.9c0.3,0,0.5-0.2,0.6-0.7c0.1-0.4,0.4-1.1,0.9-1.9
	c0.8-1.2,2.1-1.5,5.3-1.6l5.5-0.2v22.6c0,5.1,0,9.4-0.3,11.7c-0.2,1.6-0.8,2.8-1.9,3c-0.5,0.1-2.3,0.2-3.1,0.2
	c-0.7,0-0.9,0.2-0.9,0.4c0,0.4,0.4,0.6,1.1,0.6c2.2,0,7.1-0.2,8.3-0.2c1.5,0,5,0.2,8.6,0.2c0.6,0,1-0.2,1-0.6c0-0.3-0.3-0.4-0.9-0.4
	c-0.8,0-2-0.1-2.8-0.2c-1.6-0.2-2-1.4-2.1-3c-0.3-2.4-0.3-6.7-0.3-11.8V11.7l5.4,0.2c4.9,0.1,6.5,1.6,6.6,3.1l0.1,0.6
	c0.1,0.8,0.2,1.1,0.6,1.1c0.3,0,0.4-0.3,0.5-0.9c0-1.3,0-4.7,0-6.1c0.4,0,0.8,0.1,1,0.1c1.8,0.4,2.3,1.3,2.4,3.1
	c0.1,1.8,0.1,3.3,0.1,11.7v9.7c0,5.1,0,9.4-0.3,11.8c-0.2,1.6-0.5,2.8-1.6,3c-0.5,0.1-1.2,0.2-2,0.2c-0.7,0-0.9,0.2-0.9,0.4
	c0,0.4,0.4,0.6,1.1,0.6c1.1,0,2.5-0.1,3.8-0.1c1.3,0,2.5-0.1,3.1-0.1c1.7,0,3.4,0.1,5.7,0.2c2.4,0.1,8.6,0.2,12.8,0.2
	c2.1,0,2.6,0,3-1.4c0-0.1,0-0.1,0-0.2c0.2,0.4,0.5,0.6,1.1,0.9c2.8,1.1,5.6,1.4,9.3,1.4c1.2,0,2.5-0.1,3.7-0.2c1.6,0,3,0,4,0
	c2-0.1,5,0,5.7,0c0.6,0,1.1,0.1,1.1-0.4c0-0.3-0.2-0.4-0.7-0.4h-0.8c-1.7,0-1.5-0.8-0.9-1.6l7.8-11.2c0.2-0.3,0.4-0.4,0.6-0.4
	l11-0.1c0.3,0,0.4,0.1,0.4,0.4l0.4,11.4c0.1,0.7-0.5,1.2-0.9,1.3c-0.6,0.1-0.9,0.1-0.9,0.6c0,0.5,0.5,0.5,1.5,0.5
	c2,0,3.5-0.1,5.8-0.1c2,0,4,0.2,5.1,0.2c2,0,2.7-0.3,2.9-0.7C175.8,50,175.4,49.8,175,49.8z M161.2,34.2l-8.9,0
	c-0.1,0-0.3-0.1-0.1-0.4c0.9-1.2,6.2-8.9,8.4-12.1c0.1-0.2,0.4-0.1,0.4,0.1c0.1,1.6,0.6,12.2,0.6,12.2
	C161.6,34,161.5,34.2,161.2,34.2z M214.5,38.2v-0.1l0-3.9v0l0-0.4c0-0.5-0.1-1-0.1-1.6c0-0.8,0-1.6-0.1-2.3c0-1-0.2-2.1-0.4-3.2
	l-0.1-0.7l0-0.1l-0.1,0l-0.1-0.1c-0.1-0.1-0.1-0.3-0.2-0.5c0-0.2-0.1-0.4-0.2-0.6c-0.3-0.5-0.7-0.9-1-1.4l0,0l-0.1-0.1
	c-0.1-0.1-0.2-0.1-0.2-0.2c-0.1,0-0.1-0.1-0.2-0.1l-0.1-0.1l0,0l-0.1-0.1l-0.2-0.1c-0.3-0.2-0.5-0.3-0.8-0.4l0,0l-0.1-0.1
	c-0.1-0.1-0.3-0.1-0.4-0.1v-0.1l-0.2,0l-0.9-0.1l-0.1,0l-0.1,0.1l0,0c0,0-0.1,0-0.2,0c-0.1,0-0.2-0.1-0.3-0.1l-0.1,0l0,0l0,0l-0.1,0
	l-0.4-0.1l0,0.2l-0.1,0c-0.1,0-0.2,0-0.3,0.1h-0.6l-0.5,0l0.1,0.2l0,0l-0.1,0c-0.2,0-0.3,0.1-0.4,0.2c0,0,0,0,0,0
	c-0.2,0-0.3,0.1-0.4,0.2c-0.1,0-0.1,0.1-0.1,0.1l-0.1,0l-0.1,0.1l-0.1,0.1c-0.1,0.1-0.3,0.2-0.4,0.2l-0.3,0.1l0.1,0.1l0,0
	c0,0-0.1,0-0.1,0.1h-0.3v0.2l0,0l0,0l-0.2-0.1l0,0c0,0-0.1,0.1-0.1,0.1c-0.2,0.2-0.4,0.5-0.6,0.7c-0.3,0.3-0.6,0.6-0.8,0.9l-0.1,0.1
	l0,0.1l0,0c-0.1,0-0.1,0.1-0.2,0.3c-0.1,0.1-0.1,0.3-0.2,0.4c0,0,0,0.1,0,0.1c-0.1,0.1-0.1,0.3-0.2,0.4c0,0.1,0,0.1-0.1,0.2
	l-0.1,0.2l0.1,0.1l0,0.1c0,0.1,0,0.2,0,0.2c0,0,0,0.1,0,0.1l-0.1,0.1l0,0.1l0,0.2c0,0.2,0,0.4,0,0.6c0,0.3-0.1,0.5,0,0.8
	c-0.1,0.2-0.1,0.4-0.1,0.5c0,0,0,0.1,0,0.1l-0.1,0.1l0.1,0.2l0,0.1c0,0.1,0,0.3-0.1,0.5c-0.1,0.2-0.1,0.4,0,0.6c0,0,0,0-0.1,0.1
	c0,0,0,0.1,0,0.2c0,0.2,0,0.2,0,0.2l-0.1,0.2l0,0.1l0.2,0.1l0,0.1c0,0.1,0,0.2,0,0.2c0,0.1,0,0.2,0,0.3l-0.1,0.2l0.1,0.1v0l0,0.1
	c0,0.1,0,0.2,0.1,0.3c0,0,0,0,0,0.1l-0.2,0.1L201,34l0,0l0,0c0,0.1-0.1,0.3,0,0.4c-0.1,0.2,0,0.3,0,0.4c0,0,0,0.1,0,0.1
	c-0.2,0.2-0.1,0.5,0,0.6c-0.1,0.1-0.1,0.3-0.1,0.4l-0.3,0.1l0.3,0.3l0,0c0,0,0,0.1,0,0.2c0,0,0.1,0.1,0.1,0.1l-0.1,0l0,0l0,0
	l0.1,0.2l0,0l0,0.1c0,0.1,0,0.2,0.1,0.3c0,0,0,0.1,0,0.1l-0.1,0.1l0.1,0.2l0,0.1c0,0.1,0,0.3,0,0.5c-0.1,0.2-0.1,0.5,0,0.7l-0.2,0.1
	l0.2,0.1l0,0l0,0c-0.1,0.1-0.1,0.3,0,0.4l0,0l0,0.1c0,0.1,0,0.2,0,0.3c0,0.2-0.1,0.5,0.1,0.8l0,0.3l0,0l0,0.1c0,0.1,0,0.1,0,0.2
	l-0.1,0l0.1,0.2l0,0.2c0,0.2,0,0.3,0,0.5c0,0.5,0,1,0.4,1.4l0.1,0.1l0.1,0l0.1,0c0.2-0.1,0.2-0.4,0.2-0.5c0,0,0-0.1,0-0.1l0,0l0,0
	l0-0.2c-0.1-0.4,0-0.9,0-1.3c0-0.1,0-0.3,0-0.4l0-0.1l0-0.1l0-0.1c0-0.1,0-0.3,0-0.4c0-0.2,0-0.4,0-0.6c0.1-0.9,0-2,0-3
	c0-0.4,0-0.8,0-1.1v0l0,0l0-0.3c0-0.3,0-0.7,0-1.1c0-0.4,0-0.9,0-1.3c0.1-0.5,0.1-0.9,0.1-1.3c0-0.2,0-0.4,0-0.6v-0.1l0,0l0.1-0.1
	c0.1-0.1,0.1-0.2,0-0.3c0-0.2,0.1-0.3,0.1-0.5c0-0.1,0-0.2,0-0.3l0-0.1l0-0.1l0-0.1c0-0.1,0-0.2,0-0.3c0-0.1,0.1-0.3,0-0.5
	c0.2-0.3,0.2-0.8,0.2-1.2l0-0.1l0-0.1c0-0.1,0-0.1-0.1-0.2v0l0-0.1c0-0.1,0.1-0.3,0.2-0.4c0.1-0.2,0.3-0.4,0.3-0.7l0-0.1l0,0l0,0
	l0,0c0.1-0.1,0.2-0.2,0.2-0.3c0,0,0-0.1,0-0.1c0.2-0.1,0.2-0.3,0.3-0.4c0.1-0.2,0.2-0.4,0.5-0.4l0.1,0l0-0.1l0-0.1
	c0.1-0.1,0.2-0.2,0.3-0.3c0.1-0.1,0.3-0.2,0.4-0.3c0.2,0,0.3,0,0.3-0.1c0.2,0,0.3-0.2,0.5-0.3c0.2-0.2,0.3-0.2,0.4-0.1l0.1,0.1
	l0.1-0.1l0,0l0,0c0.1,0,0.2,0,0.2-0.2c0.1,0,0.1,0,0.2,0c0.1,0,0.1,0,0.2,0c0,0,0.1,0.1,0.2,0l0,0l0.2,0l0.2,0l0.2,0
	c0.5-0.1,1-0.1,1.5,0.1l0.2,0.1l0.1-0.2l0,0l0,0c0.1,0.1,0.3,0.4,0.7,0.3c0.1,0.1,0.1,0.1,0.2,0.1l0.1,0.1v0l0,0.1l0.1,0.1
	c0.1,0.1,0.3,0.1,0.4,0.1c0.4,0.4,0.7,0.9,0.7,1.1v0.2h0.2v0l0,0.1c0.1,0.3,0.1,0.5,0.3,0.7c-0.1,0.1,0,0.3,0,0.4c0,0,0,0.1,0,0.1
	l-0.1,0.2l0.1,0.1l0,0l0,0.1c0,0.1,0.1,0.2,0.1,0.3c0,0,0,0.1,0,0.1l0,0.1l0,0.1c-0.1,0.3,0.1,0.5,0.2,0.6c0,0,0,0,0,0
	c-0.1,0.1-0.1,0.2-0.1,0.3l0,0.2l0.1,0.1l0,0l0,0c0,0,0,0,0,0c0,0,0,0.1,0.1,0.1l-0.1,0.1l-0.1,0.2l0.1,0.2l0.1,0l0,0.1
	c0,0.1,0,0.1,0.1,0.1c0,0,0,0,0,0l0,0.1l0,0.1c-0.1,0.3-0.1,0.7,0.1,1.1c0,0,0,0,0,0c-0.1,0.1-0.1,0.3-0.1,0.4c0,0,0,0.1,0,0.1
	l-0.1,0.2l0,0c0,0,0.1,0,0.1,0c0,0,0,0,0,0.1l-0.1,0.3h0.1l0,0.1l0,0.1c0,0.1,0,0.2-0.1,0.3l0,0l0,0l0,0.1c0,0.2,0.1,0.4,0.1,0.5
	c0,0,0,0.1,0,0.1c0,0-0.1,0.1-0.1,0.2c0,0,0,0,0,0l-0.1,0.1l0,0.1l0,0.1c0,0,0.1,0.1,0.1,0.1l0,0l0,0c0,0,0,0.1,0,0.1l0,0.1l-0.1,0
	l0.1,0.1l0,0c0,0.1,0,0.1,0,0.2l-0.1,0.2l0,0c0,0,0,0.1,0.1,0.1c-0.1,0.3,0.1,0.5,0.3,0.6c0.1,0.1,0.1,0.1,0.1,0.1h-0.1l0.1,0.3l0,0
	l0,0l0,0l-0.2,0.1l0.1,0.2l0,0.1l0,0.1c0,0.1,0,0.2,0,0.2l0,0l0,0c-0.1,0.1-0.1,0.1-0.1,0.3l0,0.2l0.2,0l0,0.1l0,0.1
	c0,0.1,0,0.1-0.1,0.2l0,0l0,0l0.3,0.2l0,0.1c0,0,0,0.1,0,0.1c0,0,0,0.1,0,0.1h0l-0.2,0l0,0.3l0,0.1l0,0.1c0,0.1,0,0.1,0,0.2l0,0.3
	c0,0,0,0.1,0,0.1l0,0l0,0.2l0,0.1c0,0.1,0,0.1,0,0.2c0,0,0,0.1,0,0.1l-0.2,0.1l0.2,0.3l0,0l0,0c0,0.1-0.1,0.2-0.1,0.3h-0.2l0.3,0.4
	l0,0c0,0,0,0.1,0,0.1c0,0,0,0,0,0c-0.1,0.1-0.1,0.3-0.1,0.4c0,0,0,0.1,0,0.1l0,0l0,0l0.1,0.1l-0.1,0c0,0,0,0.1-0.1,0.1
	c0,0.1,0,0.1,0,0.2h-0.3l0.2,0.2l-0.2,0.1l0.2,0.1v0.6l0,0.1c0,0.1,0.1,0.1,0.1,0.2c0,0,0,0,0,0c0.1,0.1,0.2,0.1,0.4,0.1v0.2
	l0.3-0.1l0.1,0c0.1,0,0.3,0,0.4,0l0.2,0l0-0.2l0-0.4c0.1-0.7,0-1.4,0-2.1c0-0.8,0-1.5,0.1-2.3C214.6,38.5,214.5,38.3,214.5,38.2
	L214.5,38.2z M194.1,60h60V0h-60V60z M197.3,3.2h53.7v53.7h-53.7V3.2z M247.8,16.9L247.8,16.9l-0.1-0.1c-0.4-0.2-0.8-0.3-1.2-0.1
	c-2.4-0.2-4.6-0.2-7-0.2h-0.2l-0.9,0c-0.9,0-1.8,0-2.8,0l-10-0.2l-0.9,0c-2.1,0-4.4,0-6.6,0.1c-1.9,0-3.7,0.1-5.5,0.1
	c-1.9,0-6.5,0.1-9.3,0.1c-1.5,0-2.2,0-2.3,0c-0.3,0-0.7,0.5-0.7,0.8c0,0.2,0.1,0.4,0.5,0.5c0.3,0,1.9,0,4.9,0l3.1,0l0.2,0
	c0.7,0,1,0,1.2,0h0l0.9-0.1c2-0.1,4-0.1,5.9-0.1h0.2l0.9,0c1.2,0,2.3,0,3.5,0c0.3,0.1,0.6,0,0.9-0.1l0.1,0l0.1,0c0.1,0,0.2,0,0.3,0
	c0.3,0.1,0.7,0.1,1.1,0.1c0.4,0,0.8,0,1.2,0.1l0,0l0.1,0v0l0.2,0c0.3,0,0.5,0,0.8,0.1c0,0,0.1,0,0.1,0c0.1,0,0.3,0.1,0.4,0.1
	c2.9-0.1,6,0,10,0.3c0,0,1.7,0.2,1.9,0.2l0,0h0l0.6,0c1.5-0.1,3,0,4.4,0.1c0,0,0,0,0,0c1.3,0.1,2.4,0.2,3.6,0.2l0,0l0.1,0l0,0
	l0.6-0.5l0,0l0,0l0,0l0.1-0.1C248.1,17.6,248,17.3,247.8,16.9L247.8,16.9z M246,42L246,42L246,42L246,42z M231.2,38.2v-0.1l0-3.9v0
	l0,0l0-0.4c0-0.5,0-1-0.1-1.6c0-0.8,0-1.6-0.1-2.3c0-1-0.2-2.1-0.4-3.2l-0.1-0.7l0-0.1l0,0l-0.1-0.1c-0.1-0.1-0.1-0.3-0.2-0.5
	c-0.1-0.2-0.1-0.4-0.2-0.6c-0.3-0.5-0.7-0.9-1-1.4l0,0l-0.1-0.1c-0.1-0.1-0.2-0.1-0.2-0.2c-0.1,0-0.1-0.1-0.2-0.1l-0.1-0.1l-0.1,0
	l-0.1-0.1l-0.2-0.1c-0.3-0.2-0.5-0.3-0.8-0.4l-0.1-0.1c-0.1-0.1-0.3-0.1-0.4-0.1v-0.1l-0.2,0l-0.9-0.1l-0.1,0l-0.1,0.1l0,0
	c0,0-0.1,0-0.2,0c-0.1,0-0.2-0.1-0.3-0.1l-0.1,0l-0.1,0l0,0l-0.1,0l-0.4-0.1l0,0.2l-0.1,0c-0.1,0-0.2,0-0.3,0.1h-0.6l-0.5,0l0.1,0.2
	l0,0l-0.1,0c-0.2,0-0.3,0.1-0.4,0.2c0,0,0,0-0.1,0c-0.2,0-0.3,0.1-0.4,0.2c-0.1,0-0.1,0.1-0.1,0.1l-0.1,0l-0.1,0.1l-0.1,0.1
	c-0.1,0.1-0.3,0.2-0.4,0.2l-0.3,0.1l0.1,0.1l0,0c0,0-0.1,0-0.1,0.1h-0.3v0.2l0,0l0,0l-0.2-0.1l0,0c0,0-0.1,0.1-0.1,0.1
	c-0.2,0.2-0.4,0.5-0.6,0.7c-0.3,0.3-0.6,0.6-0.8,0.9l-0.1,0.1l0,0.1l0,0c-0.1,0-0.1,0.1-0.2,0.3c-0.1,0.1-0.1,0.3-0.2,0.4
	c0,0,0,0.1,0,0.1c-0.1,0.1-0.1,0.3-0.2,0.4c0,0.1,0,0.1-0.1,0.2l-0.1,0.2l0.1,0.1l0,0.1c0,0.1,0,0.2,0,0.2c0,0,0,0.1,0,0.1l-0.1,0.1
	l0,0.1l0,0.2c0,0.2,0,0.4-0.1,0.6c0,0.3-0.1,0.5,0,0.8c-0.1,0.2-0.1,0.4-0.1,0.5c0,0,0,0.1,0,0.1l-0.1,0.1l0.1,0.2l0,0.1
	c0,0.1,0,0.3-0.1,0.5c-0.1,0.2-0.1,0.4-0.1,0.6c0,0,0,0,0,0.1c0,0,0,0.1,0,0.2c0,0.2,0,0.2,0,0.2l-0.1,0.2l0,0.1l0.2,0.1l0,0.1
	c0,0.1,0,0.2,0,0.2c0,0.1,0,0.2,0,0.3l-0.1,0.2l0.1,0.1v0l0,0.1c0,0.1,0,0.2,0.1,0.3c0,0,0,0,0,0.1l-0.2,0.1l0.1,0.3l0,0l0,0
	c0,0.1-0.1,0.3,0,0.4c-0.1,0.2,0,0.3,0,0.4c0,0,0,0.1,0,0.1c-0.2,0.2-0.1,0.5,0,0.6c-0.1,0.1-0.1,0.3-0.1,0.4l-0.3,0.1l0.3,0.3l0,0
	c0,0,0,0.1,0,0.2c0,0,0.1,0.1,0.1,0.1l-0.1,0l0,0l0,0l0.1,0.2l0,0l0,0.1c0,0.1,0,0.2,0.1,0.3c0,0,0,0.1,0,0.1l-0.1,0.1l0.1,0.2
	l0,0.1c0,0.1,0,0.3,0,0.5c-0.1,0.2-0.1,0.5,0,0.7l-0.2,0.1l0.2,0.1l0,0l0,0l0,0c0,0.1-0.1,0.2,0,0.3l0,0.1l0,0l0,0l0,0l0,0.1
	c0,0.1,0,0.2,0,0.3c0,0.2-0.1,0.5,0.1,0.8l0,0.3l0,0l0,0.1c0,0.1,0,0.1,0,0.2l-0.1,0l0.1,0.2l0,0.2c0,0.2,0,0.3,0,0.5
	c0,0.5,0,1,0.4,1.4l0.1,0.1l0.1,0l0.1,0c0.2-0.1,0.2-0.4,0.2-0.5c0,0,0-0.1,0-0.1l0,0l0,0l0-0.2c-0.1-0.4,0-0.9,0-1.3
	c0-0.1,0-0.3,0-0.4l0-0.1l0-0.1l0-0.1c0-0.1,0-0.3,0-0.4c0-0.2,0-0.4,0-0.6c0.1-0.9,0-2,0-3c0-0.4,0-0.8,0-1.1v0l0-0.3
	c0-0.3,0-0.7,0-1.1c0-0.4,0-0.9,0-1.3c0.1-0.5,0.1-0.9,0.1-1.3c0-0.2,0-0.4,0-0.6l0-0.1l0,0l0.1-0.1c0.1-0.1,0.1-0.2,0-0.3
	c0-0.2,0.1-0.3,0.1-0.5c0-0.1,0-0.2,0-0.3l0-0.1l0-0.1l0-0.1c0-0.1,0-0.2,0-0.3c0-0.1,0.1-0.3,0-0.5c0.2-0.3,0.2-0.8,0.2-1.2l0-0.1
	l0-0.1c0-0.1,0-0.1-0.1-0.2v0l0-0.1c0-0.1,0.1-0.3,0.2-0.4c0.1-0.2,0.3-0.4,0.3-0.7l0-0.1l0,0l0,0l0,0c0.1-0.1,0.2-0.2,0.2-0.3
	c0,0,0-0.1,0-0.1c0.1-0.1,0.2-0.3,0.3-0.4c0.1-0.2,0.2-0.4,0.5-0.4l0.1,0l0-0.1l0-0.1c0.1-0.1,0.2-0.2,0.3-0.3
	c0.1-0.1,0.3-0.2,0.4-0.3c0.2,0,0.3,0,0.3-0.1c0.2,0,0.3-0.2,0.5-0.3c0.2-0.2,0.3-0.2,0.4-0.1l0.1,0.1l0.1-0.1l0,0l0,0
	c0.1,0,0.2,0,0.2-0.2c0.1,0,0.1,0,0.2,0c0.1,0,0.1,0,0.2,0c0,0,0.1,0.1,0.2,0l0,0l0.2,0l0.2,0l0.2,0c0.5-0.1,1-0.1,1.5,0.1l0.2,0.1
	l0.1-0.2l0,0l0,0c0.1,0.1,0.3,0.4,0.7,0.3c0.1,0.1,0.1,0.1,0.2,0.1c0,0,0.1,0,0.1,0.1v0l0,0.1l0.1,0.1c0.1,0.1,0.3,0.1,0.4,0.1
	c0.4,0.4,0.7,0.9,0.7,1.1v0.2h0.2v0l0,0.1c0.1,0.3,0.1,0.5,0.3,0.7c-0.1,0.1,0,0.3,0,0.4c0,0,0,0.1,0,0.1l-0.1,0.2l0.1,0.1l0,0
	l0,0.1c0,0.1,0.1,0.2,0.1,0.3c0,0,0,0.1,0,0.1l0,0.1l0,0.1c-0.1,0.3,0.1,0.5,0.2,0.6c0,0,0,0,0,0c-0.1,0.1-0.1,0.2-0.1,0.3l0,0.2
	l0.1,0.1l0,0l0,0c0,0,0,0,0,0c0,0,0,0.1,0.1,0.1l-0.1,0.1l-0.1,0.2l0.1,0.2l0.1,0l0,0.1c0,0.1,0,0.1,0,0.1c0,0,0,0,0,0l0,0.1l0,0.1
	c-0.1,0.3-0.1,0.7,0.1,1.1c0,0,0,0,0,0c-0.1,0.1-0.1,0.3-0.1,0.4c0,0,0,0.1,0,0.1l-0.1,0.2l0,0c0,0,0.1,0,0.1,0c0,0,0,0,0,0.1l0,0.3
	h0.1l0,0.1c0,0.1,0,0.1,0,0.2c0,0.1,0,0.2-0.1,0.3l0,0l0,0l0,0.1c0,0.2,0.1,0.4,0.1,0.5c0,0,0,0.1,0,0.1c0,0-0.1,0.1-0.1,0.2
	c0,0,0,0,0,0l0,0.1l0,0.1l0,0.1c0,0,0.1,0.1,0.1,0.1l0,0l0,0c0,0,0,0.2,0,0.2v0.1l-0.1,0l0.1,0.1l0,0.1c0,0.1,0,0.1,0,0.2l-0.1,0.2
	l0,0c0,0,0,0.1,0.1,0.1c-0.1,0.3,0.1,0.5,0.3,0.6c0.1,0.1,0.1,0.1,0.1,0.1h-0.1l0.1,0.3v0l0,0l0,0l-0.2,0.1l0.1,0.2l0,0.1l0,0.1
	c0,0.1,0,0.2,0,0.2c0,0,0,0,0,0c-0.1,0.1-0.1,0.2-0.2,0.3l0,0.2l0.2,0l0,0.1l0,0.1c0,0.1,0,0.1-0.1,0.2l0,0l0,0l0.3,0.2l0,0.1
	c0,0,0,0.1,0,0.1c0,0,0,0.1,0,0.1h0l-0.2,0l0,0.3l0,0.1l0,0.1c0,0.1,0,0.1,0,0.2v0.3l0,0c0,0,0,0.1,0,0.1l0,0l0,0.2l0,0.1
	c0,0.1,0,0.1,0,0.2c0,0,0,0.1,0,0.1l-0.2,0.1l0.2,0.3l0,0l0,0.1c0,0.1,0,0.1,0,0.2h-0.2l0.3,0.4l0,0c0,0,0,0.1,0,0.1c0,0,0,0,0,0
	c-0.1,0.1-0.1,0.3-0.1,0.4c0,0,0,0.1,0,0.1l0.1,0.1l-0.1,0c0,0-0.1,0.1-0.1,0.1c0,0.1,0,0.1,0,0.2h-0.3l0.2,0.2l-0.2,0.1l0.2,0.1
	v0.6l0,0.1c0,0.1,0.1,0.1,0.1,0.2c0,0,0,0,0,0c0.1,0.1,0.2,0.1,0.3,0.1v0.2l0.3-0.1l0.1,0c0.1,0,0.3,0,0.4,0l0.2,0l0-0.2l0-0.4
	c0.1-0.7,0-1.4,0-2.1c0-0.8,0-1.5,0.1-2.3C231.3,38.5,231.2,38.3,231.2,38.2L231.2,38.2z M247.6,38.5l0-0.1l0-3.9v0
	c-0.1-0.6-0.1-1.2-0.1-1.9c0-0.8,0-1.6-0.1-2.3c0-1-0.2-2.1-0.4-3.1l-0.1-0.7l0-0.1l0-0.1c-0.2-0.2-0.2-0.4-0.3-0.6
	c-0.1-0.2-0.1-0.4-0.2-0.6c-0.3-0.5-0.7-0.9-1-1.4l0,0c-0.1-0.1-0.2-0.2-0.3-0.2c-0.1,0-0.1-0.1-0.2-0.1l-0.1-0.1l-0.1,0l-0.1-0.1
	c-0.3-0.3-0.6-0.4-1-0.5h0c-0.1-0.2-0.3-0.2-0.4-0.2v-0.1l-0.2,0l-0.9-0.1l-0.1,0l-0.1,0.1c0,0,0,0.1-0.2,0c-0.1,0-0.2-0.1-0.3-0.1
	l-0.1,0l-0.1,0c0,0-0.1,0-0.1-0.1l-0.4-0.1l0,0.2c-0.2,0-0.3,0-0.4,0.1h-0.6l-0.5,0l0.1,0.2c0,0,0,0,0,0c-0.2-0.1-0.4,0.1-0.5,0.2
	c0,0,0,0,0,0c-0.2,0-0.3,0.1-0.4,0.2c-0.1,0-0.1,0.1-0.1,0.1l-0.1,0l-0.1,0.1c-0.1,0.1-0.3,0.2-0.5,0.3l-0.3,0.1l0.1,0.1
	c0,0-0.1,0.1-0.1,0.1h-0.3V24c0,0,0,0,0,0l-0.2-0.1c0,0-0.1,0.1-0.1,0.1c-0.2,0.2-0.4,0.5-0.6,0.7c-0.3,0.3-0.6,0.6-0.8,0.9
	l-0.1,0.1l0,0.1c-0.1,0-0.2,0.1-0.2,0.3c-0.1,0.1-0.1,0.3-0.1,0.4c0,0,0,0.1,0,0.1c-0.1,0.1-0.1,0.3-0.2,0.4c0,0.1,0,0.1-0.1,0.2
	l-0.1,0.2l0.1,0c0,0.1,0,0.2,0,0.3c0,0,0,0.1,0,0.1l-0.1,0.1l0,0.1c0,0.3,0,0.5,0,0.8c0,0.3-0.1,0.5,0,0.8c-0.1,0.2-0.1,0.4-0.1,0.5
	c0,0,0,0.1,0,0.1l-0.1,0.1l0.1,0.2c0.1,0.1,0,0.3,0,0.5c-0.1,0.2-0.1,0.4-0.1,0.6c0,0,0,0,0,0.1c0,0,0,0.1,0,0.2c0,0.1,0,0.2,0,0.2
	l-0.1,0.2l0,0.1l0.2,0.1c0,0.1,0,0.2,0,0.3c0,0.1,0,0.2,0,0.3l-0.1,0.2l0.1,0.1v0c0,0.1,0,0.3,0.1,0.4c0,0,0,0,0,0.1l-0.2,0.1
	l0.1,0.3c0,0,0,0,0,0.1c0,0.1-0.1,0.3,0,0.4c-0.1,0.2,0,0.3,0,0.5c0,0,0,0.1,0,0.1c-0.2,0.2-0.1,0.5,0,0.6c-0.1,0.1-0.1,0.3-0.1,0.4
	l-0.3,0.1l0.3,0.3c0,0.1,0,0.1,0,0.2c0,0,0.1,0.1,0.1,0.1l-0.1,0c0,0,0,0,0,0l0.1,0.3l0,0c0,0.1,0,0.3,0.1,0.4c0,0,0,0.1,0,0.1
	l-0.1,0.1l0.1,0.2c0.1,0.1,0,0.3,0,0.5c-0.1,0.2-0.1,0.5,0,0.7l-0.2,0.2l0.2,0.1c0,0,0,0,0,0l0,0c0,0.1-0.1,0.2,0,0.3l0,0.1
	c0,0,0,0,0,0l0,0l0,0l0,0c0,0.1,0,0.2,0,0.4c0,0.2-0.1,0.5,0.1,0.7l0,0.3l0,0c0,0.1,0,0.2,0,0.3l-0.1,0l0.1,0.2
	c0.1,0.2,0.1,0.4,0.1,0.7c0,0.5,0,1,0.4,1.4l0.1,0.1l0.1,0c0.3-0.1,0.3-0.4,0.3-0.6c0,0,0-0.1,0-0.1l0,0l0,0c-0.1-0.4-0.1-1,0-1.5
	c0-0.1,0-0.3,0-0.4l0-0.1l0-0.1c-0.1-0.2-0.1-0.3,0-0.5c0-0.2,0-0.4,0-0.6c0.1-0.9,0-2,0-3c0-0.4,0-0.8,0-1.1l0,0v0
	c-0.1-0.4,0-0.9,0-1.4c0-0.4,0-0.9,0-1.3c0.1-0.5,0.1-0.9,0.1-1.3c0-0.2,0-0.4,0-0.6v-0.1l0,0c0.1-0.1,0.1-0.2,0.1-0.4
	c0-0.2,0.1-0.3,0.1-0.5c0-0.1,0-0.2,0-0.3l0-0.1l0-0.1c0-0.1,0-0.2,0-0.3c0-0.1,0.1-0.3,0-0.5c0.2-0.3,0.2-0.8,0.2-1.2l0-0.1
	c0-0.1,0-0.2-0.1-0.2v0c0-0.2,0.1-0.3,0.2-0.5c0.1-0.2,0.3-0.4,0.3-0.7l0,0l0,0c0,0,0,0,0,0c0.1-0.1,0.2-0.2,0.2-0.3
	c0,0,0-0.1,0-0.1c0.2-0.1,0.2-0.3,0.3-0.4c0.1-0.2,0.2-0.4,0.5-0.4l0.1,0l0-0.1c0-0.1,0.2-0.2,0.3-0.3c0.1-0.1,0.3-0.2,0.4-0.3
	c0.2,0,0.3,0,0.3-0.1c0.2,0,0.3-0.2,0.5-0.3c0.2-0.2,0.3-0.2,0.4-0.1l0.1,0.1l0.1-0.1c0,0,0,0,0,0c0.1,0,0.2,0,0.2-0.2
	c0.1,0,0.1,0,0.2,0c0.1,0,0.1,0,0.2,0c0,0,0.1,0,0.2,0l0,0l0.2,0l0.2,0c0.6-0.1,1.2-0.2,1.7,0.1l0.2,0.1l0.1-0.2c0,0,0,0.1,0.1,0.1
	c0.1,0.1,0.3,0.4,0.7,0.3c0.1,0.1,0.1,0.1,0.2,0.2c0,0,0.1,0,0.1,0.1l0,0.1c0.1,0.1,0.3,0.2,0.5,0.2c0.4,0.4,0.7,0.9,0.7,1.1v0.2
	h0.2l0,0c0.1,0.3,0.1,0.6,0.4,0.9c-0.1,0.1,0,0.3,0,0.4c0,0,0,0.1,0,0.1l-0.1,0.2l0.1,0.1l0,0c0,0.1,0.1,0.3,0.1,0.4
	c0,0,0,0.1,0,0.1l0,0.1c-0.2,0.4,0.1,0.6,0.2,0.7c0,0,0,0,0,0c-0.1,0.1-0.1,0.1-0.1,0.3l0,0.2l0.1,0.1l0,0c0,0,0,0,0,0
	c0,0,0,0.1,0.1,0.1l-0.1,0.1l-0.1,0.2l0.1,0.2l0.1,0c0,0.1,0,0.2,0.1,0.2c0,0,0,0,0,0l0,0.1c-0.1,0.4-0.2,0.8,0.1,1.2c0,0,0,0,0,0
	c-0.1,0.1-0.1,0.3-0.1,0.4c0,0,0,0.1,0,0.1l-0.1,0.2c0,0,0.1,0,0.1,0c0,0,0,0,0,0.1l0,0.3h0.1c0,0.1,0,0.2,0,0.2
	c0,0.1,0,0.2-0.1,0.3l0,0l0,0c-0.1,0.2,0,0.5,0.1,0.6c0,0,0,0.1,0,0.1c0,0-0.1,0.1-0.1,0.2c0,0,0,0,0,0.1l0,0l0,0.1
	c0,0.1,0.1,0.1,0.1,0.1l0,0c0,0,0,0.1,0,0.1l0,0.1l-0.1,0L246,35c0,0.1-0.1,0.2,0,0.3l-0.1,0.2c0,0,0,0.1,0.1,0.1
	c-0.1,0.3,0.1,0.5,0.3,0.6c0.1,0.1,0.1,0.1,0.1,0.1h-0.1l0.1,0.3l0,0c0,0,0,0-0.1,0.1l-0.2,0.1l0.1,0.2l0,0.1c0,0.1,0,0.2,0,0.3
	c0,0,0,0,0,0c-0.1,0.1-0.1,0.2-0.1,0.3l0,0.2l0.2,0c0,0,0,0.1,0,0.1c0,0.1,0,0.1-0.1,0.2c0,0,0,0,0,0l0.3,0.2c0,0.1-0.1,0.2-0.1,0.2
	c0,0,0,0.1,0,0.1h0l-0.2,0l0,0.3c0,0,0,0.1,0,0.1c0,0.1,0,0.1,0,0.2v0.3c0,0,0,0.1,0,0.2l0,0l0,0.2c0,0.1,0,0.2,0,0.2
	c0,0,0,0.1,0,0.1l-0.2,0.1l0.2,0.3c0,0,0,0,0,0c0,0.1-0.1,0.2-0.1,0.2h-0.2l0.3,0.4c0,0,0,0.1,0.1,0.2c0,0,0,0,0,0
	c-0.1,0.1-0.1,0.3-0.1,0.4l0,0c0,0,0,0,0,0l0,0l0.1,0.1c-0.1,0-0.1,0.1-0.1,0.1c0,0.1,0,0.1,0,0.2h-0.3l0.2,0.2l-0.2,0.1l0.2,0.2
	v0.6c0,0.1,0.1,0.2,0.1,0.2c0,0,0,0,0,0c0.1,0.1,0.2,0.1,0.3,0.1V44l0.3-0.1c0.2-0.1,0.4-0.1,0.5,0l0.2,0l0-0.2
	c0.1-0.9,0.1-1.7,0.1-2.5c0-0.8,0-1.5,0.1-2.3C247.6,38.8,247.6,38.6,247.6,38.5L247.6,38.5z"/>
</svg>
