<svg width="158" height="48" viewBox="0 0 158 48" xmlns="http://www.w3.org/2000/svg"><g id="Symbols" fill="none" fill-rule="evenodd"><g id="HEADER_petrol_desktop_napoti" transform="translate(-16 -16)"><g id="logo-PETROL" transform="translate(16 16)"><path id="Fill-1" fill="none" d="M0 47.161h157.698V.101H0z"/><path id="Fill-2" fill="#FFF" d="M72.504 19.874v11.6h-5.317v-11.6h-6.706v-4.089h18.367v4.09h-4.471z"/><path id="Fill-3" fill="#FFF" d="M131.354 15.787h-5.195v15.686h15.77v-3.906h-10.575v-8.414z"/><path d="M44.348 31.473h14.199v-3.905H45.013v-2.405H57.43v-3.126H45.013v-2.463h13.202v-3.789H43.744a3.798 3.798 0 00-3.807 3.789v8.114a3.782 3.782 0 003.792 3.785h.619z" id="Fill-4" fill="#FFF"/><path d="M34.015 15.787H18.911v15.686h5.074v-4.146h10.047a3.785 3.785 0 003.791-3.787v-4.386c0-2.094-1.703-3.367-3.808-3.367m-2.492 7.754l-2.266-.001h-5.272v-3.666h5.454l2.114-.002c1.195.002 1.195.573 1.195 1.85 0 1.292 0 1.818-1.225 1.819" id="Fill-32" fill="#FFF"/><path d="M100.359 21.647v-1.772c0-2.887-1.191-4.088-3.295-4.088H80.813v15.687h5.225v-4.147h8.519s.968.059.968 1.08v3.067h4.833v-3.907s0-2.404-2.793-2.404c2.793 0 2.794-2.133 2.794-3.516M94.3 23.241h-8.263v-3.366h5.455l2.838-.002c1.194.002 1.194.36 1.195 1.639 0 1.291-.001 1.728-1.225 1.73" id="Fill-33" fill="#FFF"/><path d="M123.877 24.005v-.539c-.014-4.313-.099-5.192-.846-5.95-1.343-1.37-2.235-1.204-3.565-1.564-1.328-.361-6.163-.24-6.163-.24s-4.847.015-6.282.179c-1.37.16-2.718.463-3.808 1.625-.862.916-1.162 2.118-1.116 5.828v.81c0 .843-.213 3.517.693 5.322.726 1.443 2.806 1.91 4.17 2.103 1.373.196 6.283.18 6.283.18s4.215.016 6.162-.12c1.375-.096 3.113-.909 3.929-2.345.71-1.248.543-4.447.543-5.289m-5.373 2.77c-.377.872-1.459.847-2.192.85-.727.002-3.062-.003-3.062-.003s-2.258.005-3.182.003c-.732-.003-2.296-.263-2.586-.974-.341-.84-.357-2.02-.357-2.466v-.972c0-.448.046-2.06.385-2.573.707-1.067 2.23-1.076 2.427-1.074.874.009 3.18.001 3.18.001s2.226.006 3.064 0c.732-.007 1.776.111 2.258.98.074.13.468.228.45 2.249v1.248c.018.757-.006 1.859-.385 2.731" id="Fill-34" fill="#FFF"/></g></g></g></svg>
