<?xml version="1.0" encoding="utf-8"?>
<!-- Generator: Adobe Illustrator 23.0.1, SVG Export Plug-In . SVG Version: 6.00 Build 0)  -->
<svg version="1.1" id="Layer_1" xmlns="http://www.w3.org/2000/svg" xmlns:xlink="http://www.w3.org/1999/xlink" x="0px" y="0px"
	 viewBox="0 0 283.5 72.1" style="enable-background:new 0 0 283.5 72.1;" xml:space="preserve">
<style type="text/css">
	.st0{fill:#FFFFFF;}
</style>
<g>
	<g>
		<g>
			<path class="st0" d="M68,38.1c4.6,3.1,7.4,8.3,7.4,14c0,5.8-3,11-7.5,14c5.9-1.9,10.1-7.5,10.1-14C78.1,45.5,73.8,40,68,38.1z"/>
			<path class="st0" d="M75.4,22.6c0,5.7-2.8,10.9-7.4,14c4.1-1.4,7.4-4.4,9-8.4h9.4c0,0-1.3-14.3-17.8-19.3
				c-0.2-0.1-0.4-0.2-0.7-0.2C72.4,11.7,75.4,16.8,75.4,22.6z"/>
		</g>
		<path class="st0" d="M64.1,38.4L64.1,38.4c-0.6-0.3-0.9-0.5-0.9-1.1c0-0.5,0.3-0.8,0.9-1.1h0c5.4-2.2,9.2-7.5,9.2-13.6
			c0-8.1-6.6-14.7-14.7-14.7H31.8c-15.1,0-20,0.5-28.5-4.6c2.3,11.9,14.3,22.8,28.5,22.8h20.3c0.6,0,1.1,0.5,1.1,1.1
			c0,0.6-0.5,1.1-1.1,1.1h-9.6c-15.1,0-20,0.5-28.5-4.6c2.3,11.9,14.3,22.8,28.5,22.8h9.6c0.6,0,1.1,0.5,1.1,1.1
			c0,0.6-0.5,1.1-1.1,1.1h-2.5c0,0,0,0,0,0c-12.3,0-17.1,0.1-25-4.6C26.9,55.8,39,66.7,53.2,66.7h5.4c8.1,0,14.7-6.6,14.7-14.7
			C73.3,45.8,69.5,40.6,64.1,38.4z M61.8,17c0-0.9,0.7-1.7,1.7-1.7c0.9,0,1.7,0.7,1.7,1.7c0,0.9-0.7,1.7-1.7,1.7
			C62.5,18.6,61.8,17.9,61.8,17z"/>
	</g>
	<g>
		<g>
			<path class="st0" d="M124.7,47.6c0,4.6-3.3,7.2-9.1,7.2h-11.5V28.2h10.5c5.7,0,9,2.7,9,7.2c0,4-2.8,5.2-4.3,5.4V41
				C121.1,41.3,124.7,43.1,124.7,47.6z M113.4,32.5h-3.7v6.7h4c2.7,0,4.2-1.3,4.2-3.3C117.9,33.8,116.4,32.5,113.4,32.5z
				 M118.9,46.9c0-2.5-2-3.7-4.7-3.7h-4.5v7.2h4.9C117.1,50.5,118.9,49.3,118.9,46.9z"/>
			<path class="st0" d="M146.6,50.1v4.7h-17.7V28.2h5.7V50L146.6,50.1L146.6,50.1z"/>
			<path class="st0" d="M170.8,28.2v16.1c0,6.6-4.5,10.7-11.1,10.7c-6.7,0-11.1-4.2-11.1-10.7V28.2h5.7v16c0,3.7,2.2,5.8,5.4,5.8
				c3.2,0,5.4-2.1,5.4-5.8V28.2H170.8z"/>
			<path class="st0" d="M181.8,32.9v6.1h10.3v4.5h-10.3v6.6h11.9v4.7h-17.6V28.2h17.6v4.7H181.8z"/>
			<path class="st0" d="M217.9,47.7c0,4.5-3.2,7-9,7h-9.6V28.4h8.8c5.4,0,8.6,2.4,8.6,7c0,3.9-2.9,5.2-4.4,5.5v0.1
				C214.4,41.3,217.9,42.9,217.9,47.7z M207.8,30.6h-6v9.5h6.8c3.7,0,5.5-2.1,5.5-4.6C214.1,32.4,212.2,30.6,207.8,30.6z
				 M215.3,47.5c0-3.6-2.7-5.4-6.6-5.4h-7v10.5h6.8C212.7,52.6,215.3,50.9,215.3,47.5z"/>
			<path class="st0" d="M223.8,28.4h2.5v26.4h-2.5V28.4z"/>
			<path class="st0" d="M253.4,54.8c0,0-0.7,0.1-1.5,0.1c-6.8,0-4.9-10.7-12.3-10.7h-3.3v10.5h-2.5V28.4h7.7c5.8,0,9.2,2.7,9.2,8
				c0,4-2.7,6.6-6.5,7.5c4,1.5,4.3,9,8.2,9c0.4,0,0.6-0.1,0.6-0.1L253.4,54.8z M241.1,42.3c4.1,0,7.2-2.1,7.2-5.9
				c0-3.7-2.6-5.9-6.8-5.9h-5.1v11.7L241.1,42.3L241.1,42.3z"/>
			<path class="st0" d="M278.3,41.6c0,8.7-4.6,13.2-11.9,13.2h-8.6V28.4h7.2C273.3,28.4,278.3,33.3,278.3,41.6z M275.8,41.6
				c0-7.2-4.1-11-10.9-11h-4.7v22h6.1C272.1,52.6,275.8,48.8,275.8,41.6z"/>
		</g>
	</g>
	<g>
		<path class="st0" d="M116.6,57l-2.8,9.7h-1.1l-2.1-7.4c-0.1-0.4-0.2-0.9-0.3-1.1h0c0,0.2-0.1,0.7-0.3,1.1l-2.2,7.4h-1l-2.8-9.7h1
			l2.2,7.9c0.1,0.3,0.2,0.6,0.2,0.8h0c0.1-0.3,0.1-0.5,0.2-0.8l2.3-7.9h0.9l2.3,7.9l0.2,0.8h0c0.1-0.3,0.1-0.6,0.2-0.8l2.2-7.9
			H116.6z"/>
		<path class="st0" d="M127.3,57v9.7h-0.9V62h-5.8v4.7h-0.9V57h0.9v4.3h5.8V57H127.3z"/>
		<path class="st0" d="M132.3,57.8v3.5h4.5V62h-4.5v3.9h5v0.8h-5.9V57h5.9v0.8L132.3,57.8L132.3,57.8z"/>
		<path class="st0" d="M148.1,66.7h-1.1l-4.6-7.1c-0.3-0.5-0.8-1.3-0.9-1.4l-0.1,0c0,0.1,0.1,0.7,0.1,1.3l0,7.2h-0.9v-9.7h1.1
			l4.6,7.1c0.5,0.7,0.7,1.2,0.8,1.4l0.1,0c0-0.2-0.1-0.7-0.1-1.3l0-7.2h0.9L148.1,66.7L148.1,66.7z"/>
		<path class="st0" d="M159.9,58.4c-1,0-1.6,0.5-1.6,1.2c0,1.9,5.2,0.9,5.2,4.5c0,1.5-1.3,2.7-3.7,2.7c-1.9,0-3.3-0.8-3.8-1.3
			l1.1-1.4c0.4,0.4,1.4,1.1,2.8,1.1c1.1,0,1.7-0.4,1.7-1.1c0-2.2-5.2-1.1-5.2-4.5c0-1.6,1.4-2.9,3.4-2.9c2.6,0,3.4,1.6,3.6,2.5
			l-1.7,0.4C161.6,59.2,161.1,58.4,159.9,58.4z"/>
		<path class="st0" d="M173.8,60.3c0,2.3-1.5,3.4-3.8,3.4h-1.8v3h-1.9v-9.8h3.4C172.3,56.9,173.8,58.1,173.8,60.3z M171.9,60.3
			c0-1.2-0.8-1.9-2.3-1.9h-1.4v3.8h1.4C171.1,62.3,171.9,61.6,171.9,60.3z"/>
		<path class="st0" d="M178.4,58.5v2.5h3.9v1.5h-3.9v2.7h4.5v1.5h-6.4v-9.8h6.4v1.5L178.4,58.5L178.4,58.5z"/>
		<path class="st0" d="M187.8,58.5v2.5h3.9v1.5h-3.9v2.7h4.5v1.5h-6.4v-9.8h6.4v1.5L187.8,58.5L187.8,58.5z"/>
		<path class="st0" d="M203.6,61.8c0,3.3-1.7,4.9-4.5,4.9h-3.8v-9.8h3.3C201.9,56.9,203.6,58.8,203.6,61.8z M201.7,61.8
			c0-2.3-1.2-3.4-3.2-3.4h-1.2v6.8h1.7C200.6,65.2,201.7,64.2,201.7,61.8z"/>
		<path class="st0" d="M221.2,66.7h-0.9l0-7.1c0-0.4,0-0.9,0.1-1l-0.1,0c-0.1,0.1-0.2,0.6-0.3,0.9l-3.2,7.3h-0.6l-3.3-7.3
			c-0.2-0.4-0.3-0.8-0.3-0.8l-0.1,0c0,0.1,0.1,0.6,0.1,1l0,7.1h-0.9V57h1.1l3.3,7.4c0.2,0.3,0.4,0.9,0.4,1.1h0
			c0.1-0.2,0.3-0.7,0.4-1.1l3.3-7.4h1L221.2,66.7L221.2,66.7z"/>
		<path class="st0" d="M230.5,64.1h-4.4l-1,2.6h-1l3.7-9.7h0.9l3.7,9.7h-1L230.5,64.1z M230.2,63.3l-1.7-4.4
			c-0.1-0.2-0.2-0.5-0.2-0.7h0c-0.1,0.3-0.2,0.5-0.2,0.7l-1.7,4.4H230.2z"/>
		<path class="st0" d="M236.6,57.8h-3.3V57h7.5v0.8h-3.3v8.9h-0.9V57.8z"/>
		<path class="st0" d="M245.8,57.8h-3.3V57h7.5v0.8h-3.3v8.9h-0.9V57.8z"/>
		<path class="st0" d="M253.8,57.8v3.5h4.5V62h-4.5v3.9h5v0.8h-5.9V57h5.9v0.8L253.8,57.8L253.8,57.8z"/>
		<path class="st0" d="M269.4,66.7c0,0-0.3,0.1-0.6,0.1c-2.5,0-1.8-3.9-4.5-3.9h-1.2v3.9h-0.9V57h2.9c2.1,0,3.4,1,3.4,3
			c0,1.5-1,2.4-2.4,2.8c1.5,0.6,1.6,3.3,3,3.3c0.2,0,0.2,0,0.2,0L269.4,66.7z M264.9,62.1c1.5,0,2.6-0.8,2.6-2.2
			c0-1.4-1-2.2-2.5-2.2h-1.9v4.3L264.9,62.1L264.9,62.1z"/>
		<path class="st0" d="M275,57.7c-1.3,0-2.2,0.7-2.2,1.7c0,2.5,5.6,1.2,5.6,4.9c0,1.5-1.3,2.5-3.4,2.5c-1.8,0-3-0.7-3.5-1.1l0.6-0.7
			c0.5,0.4,1.4,1,3,1c1.5,0,2.4-0.7,2.4-1.7c0-2.9-5.6-1.4-5.6-4.8c0-1.5,1.3-2.6,3.1-2.6c2.4,0,3,1.5,3.3,2.2l-0.9,0.2
			C277.2,58.8,276.6,57.7,275,57.7z"/>
	</g>
</g>
</svg>
