<?xml version="1.0" standalone="no"?>
<!DOCTYPE svg PUBLIC "-//W3C//DTD SVG 1.1//EN" "http://www.w3.org/Graphics/SVG/1.1/DTD/svg11.dtd">
<svg xmlns="http://www.w3.org/2000/svg" xmlns:xlink="http://www.w3.org/1999/xlink" version="1.1" width="3162.25146484375" height="1011.1915283203125" viewBox="0 0 3162.251474599231 1011.191545966467">
			<rect fill="none" width="3162.251474599231" height="1011.191545966467"/>
			<g transform="scale(8.112573729961548) translate(10, 10)">
				<defs id="SvgjsDefs2010"/><g id="SvgjsG2011" featureKey="QMusi1-0" transform="matrix(0.2216425769401912,0,0,0.2216425769401912,-12.730485598089047,1.018873542727789)" fill="white"><metadata xmlns="http://www.w3.org/2000/svg"><!--?xpacket begin="&;" id="W5M0MpCehiHzreSzNTczkc9d"?--><x:xmpmeta xmlns:x="adobe:ns:meta/" x:xmptk="Adobe XMP Core 5.3-c011 66.145661, 2012/02/06-14:56:27        "/><!--?xpacket end="w"?--></metadata><g xmlns="http://www.w3.org/2000/svg"><path fill="#64ee85" d="M435.17,317.35c-3.287,0-6.238,1.426-8.287,3.685l-116.105-43.858c2.469-6.173,3.838-12.901,3.838-19.954   c0-3.084-0.272-6.101-0.77-9.041l41.753-12.034c4.901,10.298,15.399,17.415,27.563,17.415c16.857,0,30.516-13.662,30.516-30.517   s-13.658-30.517-30.516-30.517c-16.854,0-30.518,13.662-30.518,30.517c0,1.443,0.111,2.86,0.303,4.251l-41.574,11.938   C304.883,220.945,290,207.208,269,204.098V103.145c16-3.401,26.674-16.949,26.674-33.152c0-18.77-15.138-33.984-33.907-33.984   c-18.769,0-33.669,15.215-33.669,33.984c0,16.226,11.902,29.788,26.902,33.165v100.657c-15,1.71-27.457,9.161-36.068,20.02   l-42.147-33.265c0.812-1.891,1.192-3.973,1.192-6.159c0-8.647-7.044-15.657-15.692-15.657c-8.646,0-15.673,7.01-15.673,15.657   s7.001,15.656,15.649,15.656c3.094,0,5.968-0.91,8.399-2.46l42.871,33.95c-4.146,7.628-6.508,16.371-6.508,25.665   c0,4.772,0.628,9.397,1.795,13.803L99.943,314.091c-4.106-6.382-11.266-10.611-19.42-10.611c-12.751,0-23.086,10.336-23.086,23.087   s10.335,23.086,23.086,23.086c12.047,0,21.932-9.224,22.988-20.993l111.074-43.937c4.993,8.376,12.191,15.282,20.801,19.909   l-15.088,41.525c-0.52-0.053-1.049-0.08-1.581-0.08c-8.647,0-15.658,7.011-15.658,15.656c0,8.646,7.011,15.657,15.658,15.657   c8.649,0,15.655-7.011,15.655-15.657c0-4.797-2.163-9.086-5.561-11.958l15.076-41.493c5.325,1.767,11.013,2.736,16.931,2.736   c4.366,0,8.604-0.533,12.669-1.514l35.744,95.202c-9.619,6.003-16.024,16.675-16.024,28.847c0,18.771,15.215,33.984,33.983,33.984   c18.771,0,33.984-15.214,33.984-33.984c0-18.768-15.214-33.982-33.984-33.982c-1.328,0-2.639,0.084-3.928,0.232l-35.955-95.766   c7.887-4.472,14.533-10.872,19.293-18.567l117.451,44.365c0.639,5.577,5.368,9.911,11.117,9.911c6.187,0,11.2-5.016,11.2-11.199   C446.37,322.362,441.356,317.35,435.17,317.35z"/></g></g><g id="SvgjsG2012" featureKey="UyNsn2-0" transform="matrix(4.490914888590665,0,0,4.490914888590665,100.34144728320446,4.401785991607245)" fill="#6610f2"><path d="M1.26 5.699999999999999 l3.26 0 l0 14.3 l-3.26 0 l0 -14.3 z M7.26 12.04 l-1.68 0 l1.32 -2.48 l2.9 0 l0.26 1.12 c0.33334 -0.36 0.73 -0.66 1.19 -0.9 s0.99 -0.36 1.59 -0.36 c1.2133 0 2.1134 0.32334 2.7 0.97 s0.88 1.67 0.88 3.07 l0 6.54 l-3.04 0 l0 -6.02 c0 -0.61334 -0.15 -1.0533 -0.45 -1.32 s-0.68334 -0.4 -1.15 -0.4 c-0.38666 0 -0.73332 0.13 -1.04 0.39 s-0.46 0.69 -0.46 1.29 l0 6.06 l-3.02 0 l0 -7.96 z M19.32 12.059999999999999 l-1.24 0 l0 -2.52 l1.24 0 l0 -2.84 l3 0 l0 2.84 l2.48 0 l-1.4 2.52 l-1.18 0 l0.1 0.64 l0 3.14 c0 0.34666 0.02334 0.62666 0.07 0.84 s0.12 0.38 0.22 0.5 s0.22666 0.20334 0.38 0.25 s0.33 0.07 0.53 0.07 c0.14666 0 0.32666 -0.01666 0.54 -0.05 s0.44 -0.07 0.68 -0.11 l0.16 1.34 l0.12 1.2 c-0.38666 0.08 -0.74 0.14 -1.06 0.18 s-0.64666 0.06 -0.98 0.06 c-1.24 0 -2.16 -0.28666 -2.76 -0.86 s-0.9 -1.52 -0.9 -2.84 l0 -4.36 z M30.62 9.44 c0.69334 0 1.3166 0.096622 1.87 0.28996 s1.0167 0.50668 1.39 0.94002 s0.66 0.99 0.86 1.67 s0.3 1.5 0.3 2.46 l0 0.31 l-0.04 0.63 l-5.6 0 l-0.42 -0.06 c0.01334 0.38666 0.05668 0.69666 0.13002 0.93 s0.18 0.41668 0.32 0.55002 s0.31 0.22668 0.51 0.28002 s0.42666 0.08668 0.68 0.10002 c0.41334 0.02666 0.77 -0.03334 1.07 -0.18 s0.58334 -0.44666 0.85 -0.9 c0.41334 0.13334 0.79334 0.26 1.14 0.38 c0.29334 0.10666 0.56 0.2 0.8 0.28 s0.36 0.11334 0.36 0.1 c-0.48 1 -1.0633 1.73 -1.75 2.19 s-1.51 0.69 -2.47 0.69 c-0.70666 0 -1.3467 -0.09334 -1.92 -0.28 s-1.06 -0.49 -1.46 -0.91 s-0.71 -0.96666 -0.93 -1.64 s-0.33 -1.4967 -0.33 -2.47 c0 -0.94666 0.11 -1.7567 0.33 -2.43 s0.53 -1.2267 0.93 -1.66 s0.88666 -0.75334 1.46 -0.96 s1.2133 -0.31 1.92 -0.31 z M31.72 13.440000000000001 l0.30004 0.04 c-0.02666 -0.46666 -0.15 -0.83 -0.37 -1.09 s-0.56334 -0.39 -1.03 -0.39 c-0.53334 0 -0.91668 0.13 -1.15 0.39 s-0.37668 0.62334 -0.43002 1.09 c0.06666 -0.01334 0.12666 -0.02334 0.18 -0.03 s0.11334 -0.01 0.18 -0.01 l2.32 0 z M40.24 9.92 c0.16 -0.10666 0.38332 -0.21 0.66998 -0.31 s0.61 -0.15 0.97 -0.15 c0.30666 0 0.55666 0.01334 0.75 0.04 s0.29 0.03332 0.29 0.01998 l0 2.66 c-0.30666 -0.02666 -0.60666 -0.03332 -0.9 -0.01998 c-0.25334 0.02666 -0.51668 0.07 -0.79002 0.13 s-0.52334 0.17 -0.75 0.33 c-0.26666 0.18666 -0.45666 0.44 -0.57 0.76 s-0.17 0.76 -0.17 1.32 l0 5.32 l-3 0 l0 -7.94 l-1.62 0 l1.28 -2.54 l3.34 0 l0 0.78 c0.06666 -0.05334 0.12666 -0.10668 0.18 -0.16002 c0.05334 -0.04 0.10668 -0.08334 0.16002 -0.13 s0.10668 -0.08332 0.16002 -0.10998 z M44.800000000000004 5.699999999999999 l3.26 0 l0 14.3 l-3.26 0 l0 -14.3 z M53.120000000000005 8.54 l-3.42 0 l0 -2.84 l10.3 0 l-0.46 1.4 l-0.46 1.44 l-2.68 0 l0.06 0.56 l0 10.9 l-3.34 0 l0 -11.46 z"/></g>
			</g>
		</svg>